<svg xmlns="http://www.w3.org/2000/svg" width="25" height="24" viewBox="0 0 25 24" fill="none">
  <path d="M9.23099 1.24673C9.06384 1.35015 8.93987 1.51067 8.88205 1.69853C8.82424 1.88639 8.83651 2.08884 8.91659 2.26834C8.99667 2.44784 9.13913 2.59222 9.31755 2.67469C9.49596 2.75716 9.69823 2.77213 9.88685 2.71682C10.3609 2.47902 10.8484 2.26884 11.3468 2.08737C12.2686 1.78076 11.9559 0.361431 10.9407 0.529963C10.3492 0.710247 9.77773 0.950414 9.23505 1.24673H9.23099ZM10.7214 11.9577V10.6967L12.6138 8.76369C12.7212 8.65808 12.8222 8.5462 12.9164 8.42865C12.9956 8.33609 13.0638 8.23454 13.1194 8.12611C13.165 8.03105 13.1886 7.92695 13.1885 7.82153C13.1928 7.7233 13.1703 7.62574 13.1235 7.53929C13.0774 7.46348 13.0052 7.40715 12.9204 7.38091C12.8083 7.34501 12.6909 7.32853 12.5732 7.33218H10.8189V6.07123C11.0869 6.01031 11.3854 5.95549 11.7163 5.9027C12.0969 5.84802 12.4811 5.82223 12.8656 5.82554C13.2536 5.80965 13.6403 5.87896 13.9986 6.02859C14.2599 6.14358 14.47 6.35013 14.5895 6.60931C14.7145 6.90652 14.7741 7.22716 14.7641 7.54944C14.7676 7.79648 14.732 8.0425 14.6585 8.2784C14.5873 8.49559 14.4839 8.7009 14.3519 8.88755C14.2063 9.09211 14.0433 9.28369 13.8646 9.46015L12.8169 10.5323H14.9286V11.9536L10.7214 11.9577ZM18.0312 11.9577V10.8348H15.5053L15.2271 10.1383L16.9875 5.87427H18.612L17.1195 9.49264H18.0353V8.59109L18.3378 7.80529H19.6231V9.49264H20.1145V10.5891L19.6231 10.8348V11.9577H18.0312ZM6.09791 11.0805C6.83443 12.4541 7.74332 13.7281 8.80255 14.8715C10.0378 16.1667 11.4889 17.2372 13.091 18.035C13.1474 18.0652 13.2098 18.0825 13.2737 18.0857C13.3376 18.0888 13.4014 18.0778 13.4605 18.0533C13.6563 17.9645 13.8318 17.8367 13.9763 17.6776C14.1435 17.4956 14.2988 17.303 14.4413 17.101C15.1296 16.1954 15.9824 15.0705 17.1865 15.6329L17.2596 15.6715L21.274 17.9802L21.3146 18.0066C21.5607 18.1836 21.7586 18.4194 21.8902 18.6925C22.0218 18.9656 22.0829 19.2673 22.0679 19.5701C22.0404 20.2718 21.8388 20.9556 21.4811 21.56C21.0377 22.3227 20.3596 22.9217 19.548 23.2676C18.7884 23.5941 17.9866 23.8121 17.1662 23.9154C15.946 24.0936 14.7012 23.9894 13.5276 23.6108C12.2395 23.1789 11.0113 22.5853 9.87263 21.8442L9.78126 21.7854C9.18429 21.4158 8.54265 21.0178 7.91522 20.5488C5.6045 18.8086 3.25723 16.2847 1.72825 13.5293C0.447 11.2064 -0.253527 8.69871 0.13024 6.31083C0.333291 5.00115 0.903865 3.80924 1.88257 3.0214C2.73539 2.33306 3.88669 1.95741 5.37708 2.0894C5.46101 2.09472 5.54223 2.12115 5.61322 2.16623C5.68421 2.21131 5.74267 2.27358 5.78318 2.34727L8.34975 6.70069C8.5218 6.89695 8.63377 7.13856 8.67229 7.3967C8.71082 7.65485 8.67427 7.91862 8.56701 8.15656C8.3413 8.60476 8.00168 8.9857 7.58222 9.26116C7.44211 9.38096 7.27764 9.49873 7.10505 9.62463C6.53041 10.0409 5.87456 10.5241 6.09994 11.0947V11.0805H6.09791ZM22.0923 15.4766C22.0047 15.6473 21.9804 15.8436 22.0237 16.0306C22.067 16.2176 22.1751 16.3832 22.3289 16.498C22.4827 16.6129 22.6722 16.6695 22.8638 16.658C23.0553 16.6465 23.2367 16.5674 23.3755 16.435C23.4152 16.3911 23.4506 16.3435 23.4811 16.2928C23.7734 15.7792 24.0154 15.2386 24.204 14.6786C24.2599 14.4938 24.2481 14.2952 24.1709 14.1183C24.0936 13.9414 23.9559 13.7978 23.7824 13.7133C23.6089 13.6287 23.4109 13.6087 23.224 13.6569C23.0371 13.705 22.8734 13.8181 22.7623 13.976C22.7292 14.0298 22.7019 14.087 22.6811 14.1466C22.5261 14.6074 22.3283 15.0527 22.0902 15.4766H22.0923ZM23.341 11.1983C23.3331 11.3927 23.3952 11.5834 23.5161 11.7359C23.637 11.8883 23.8085 11.9923 23.9996 12.0289C24.1906 12.0656 24.3885 12.0324 24.5572 11.9355C24.7259 11.8386 24.8542 11.6843 24.9187 11.5008C24.9339 11.4484 24.9441 11.3947 24.9492 11.3404C24.9918 10.752 24.9836 10.1609 24.9248 9.57386C24.9004 9.38885 24.8129 9.21792 24.6772 9.08979C24.5415 8.96167 24.3659 8.88418 24.1798 8.87036C23.9937 8.85654 23.8085 8.90723 23.6554 9.01391C23.5022 9.12058 23.3905 9.27673 23.339 9.45609C23.3169 9.54982 23.31 9.64649 23.3187 9.74239C23.3687 10.2261 23.3762 10.7133 23.341 11.1983ZM22.5451 6.88953C22.6474 7.06069 22.8092 7.1882 22.9996 7.24774C23.19 7.30729 23.3956 7.29471 23.5772 7.2124C23.7589 7.13009 23.904 6.98381 23.9847 6.80144C24.0655 6.61907 24.0763 6.41336 24.0151 6.22352C23.7735 5.6921 23.4876 5.18199 23.1603 4.6986C23.1072 4.5973 23.0333 4.50835 22.9434 4.43758C22.8536 4.36682 22.7498 4.31583 22.6389 4.28796C22.5279 4.26009 22.4124 4.25596 22.2997 4.27585C22.1871 4.29573 22.0799 4.33919 21.9852 4.40336C21.8905 4.46754 21.8105 4.55099 21.7503 4.64825C21.6901 4.74551 21.6511 4.85438 21.6359 4.96775C21.6207 5.08111 21.6296 5.19641 21.6621 5.30609C21.6945 5.41577 21.7498 5.51736 21.8242 5.60421C22.0998 6.01189 22.3409 6.44181 22.5451 6.88953ZM19.7937 3.46608C20.6404 4.08539 21.6212 2.85693 20.7643 2.17671C20.2978 1.82723 19.8042 1.51557 19.2881 1.2447C18.4597 0.812205 17.6536 1.9432 18.3988 2.58078C18.4434 2.61744 18.4917 2.64942 18.5429 2.67621C18.9804 2.9055 19.3987 3.16965 19.7937 3.46608ZM15.7327 1.73609C15.9243 1.76421 16.1197 1.72292 16.2836 1.61966C16.4475 1.51639 16.5691 1.35796 16.6264 1.17294C16.6838 0.987916 16.6731 0.788493 16.5963 0.610646C16.5196 0.432799 16.3818 0.288241 16.2078 0.203051C16.1431 0.173436 16.0749 0.15228 16.0048 0.140105C15.4277 0.0494571 14.8447 0.00262155 14.2606 0C14.0452 0 13.8386 0.0855713 13.6863 0.237889C13.5339 0.390207 13.4484 0.596795 13.4484 0.812205C13.4484 1.02761 13.5339 1.2342 13.6863 1.38652C13.8386 1.53884 14.0452 1.62441 14.2606 1.62441C14.755 1.62841 15.2484 1.66914 15.7368 1.74624L15.7327 1.73609Z" fill="#ABABAB"/>
</svg>