<svg xmlns="http://www.w3.org/2000/svg" width="20" height="20" viewBox="0 0 20 20" fill="none">
  <path d="M13.5356 14.714C13.8611 15.0395 14.3887 15.0395 14.7142 14.714C15.0396 14.3886 15.0396 13.861 14.7142 13.5355L11.1786 10L14.7142 6.46448C15.0396 6.13904 15.0396 5.6114 14.7142 5.28597C14.3887 4.96053 13.8611 4.96053 13.5356 5.28597L10.0001 8.82149L6.46458 5.28595C6.13914 4.96051 5.61151 4.96051 5.28607 5.28595C4.96063 5.61138 4.96063 6.13902 5.28607 6.46446L8.82161 10L5.28607 13.5355C4.96063 13.861 4.96063 14.3886 5.28607 14.7141C5.61151 15.0395 6.13914 15.0395 6.46458 14.7141L10.0001 11.1785L13.5356 14.714Z" fill="#2C3333"/>
</svg>