<svg xmlns="http://www.w3.org/2000/svg" width="14" height="14" viewBox="0 0 14 14" fill="none">
  <path d="M4.23013 11.0401L2.46902 12.5206C2.40525 12.5742 2.32749 12.6085 2.2449 12.6194C2.16231 12.6303 2.07831 12.6174 2.00278 12.5823C1.92726 12.5471 1.86335 12.4911 1.81857 12.4208C1.77379 12.3506 1.75 12.269 1.75 12.1857V3.5C1.75 3.38397 1.79609 3.27269 1.87814 3.19064C1.96019 3.10859 2.07147 3.0625 2.1875 3.0625H11.8125C11.9285 3.0625 12.0398 3.10859 12.1219 3.19064C12.2039 3.27269 12.25 3.38397 12.25 3.5V10.5C12.25 10.616 12.2039 10.7273 12.1219 10.8094C12.0398 10.8914 11.9285 10.9375 11.8125 10.9375H4.51165C4.40866 10.9375 4.30897 10.9738 4.23013 11.0401Z" stroke="#0E84E5" stroke-width="1.5" stroke-linecap="round" stroke-linejoin="round"/>
</svg>