<svg xmlns="http://www.w3.org/2000/svg" width="31" height="24" viewBox="0 0 31 24" fill="none">
  <path fill-rule="evenodd" clip-rule="evenodd" d="M0.167969 10.477H5.95778V21.7024H0.167969V10.477ZM13.2543 3.90644L15.9783 0.154665C16.0129 0.106936 16.0583 0.0680491 16.1107 0.0411728C16.1632 0.0142964 16.2212 0.000190385 16.2802 3.82107e-06H27.064C27.1295 -0.00029206 27.1939 0.0166004 27.2508 0.0489934C27.3077 0.0813864 27.3551 0.128146 27.3883 0.184599L30.1024 3.89647C30.1664 3.96674 30.2018 4.05836 30.2018 4.1534C30.2018 4.24844 30.1664 4.34006 30.1024 4.41034L22.0375 13.0514C22.0041 13.0874 21.964 13.1165 21.9193 13.1371C21.8746 13.1576 21.8264 13.1691 21.7773 13.1709C21.7282 13.1728 21.6792 13.1649 21.6331 13.1479C21.587 13.1308 21.5447 13.1048 21.5087 13.0714L21.4863 13.0464L13.2543 4.41283C13.238 4.39628 13.2238 4.37785 13.2119 4.35795C13.175 4.29786 13.1552 4.22888 13.1545 4.15839C13.1532 4.0662 13.1871 3.97697 13.2493 3.90894L13.2543 3.90644ZM19.4058 4.53008L21.7582 11.5821L24.0606 4.53008H19.4058ZM24.8489 4.53008L22.6362 11.3102L28.9574 4.53008H24.8489ZM20.8851 11.3302L18.6275 4.53008H14.4093L20.8951 11.3302H20.8851ZM16.9936 0.748364L18.8969 3.50732L20.93 0.748364H16.9936ZM22.4342 0.748364L24.5545 3.50732L26.3606 0.748364H22.4342ZM27.0815 1.03025L25.273 3.77423H29.0796L27.084 1.03025H27.0815ZM23.8162 3.77423L21.6783 0.997817L19.6253 3.77673L23.8162 3.77423ZM18.171 3.77423L16.2727 1.03025L14.2771 3.77423H18.171ZM7.2275 20.7371V11.3876H11.4383C13.2244 11.7069 15.0104 12.6747 16.794 13.7973H20.0669C21.5461 13.8871 22.3119 15.3888 20.8826 16.3741C19.7376 17.2123 18.2234 17.1674 16.6693 17.0302C15.5992 16.9753 15.5543 18.4146 16.6693 18.4196C17.0585 18.4496 17.48 18.3573 17.8467 18.3573C19.785 18.3548 21.3715 17.9856 22.3544 16.4639L22.8533 15.3189L27.7201 12.9092C30.1548 12.106 31.8835 14.6554 30.0899 16.4265C26.6932 18.9016 23.0601 21.0348 19.2437 22.7951C16.5596 24.429 13.8729 24.3741 11.1913 22.7951L7.2275 20.7495V20.7371Z" fill="#ABABAB"/>
</svg>