<svg width="21" height="18" viewBox="0 0 21 18" fill="none" xmlns="http://www.w3.org/2000/svg">
<path d="M16.268 7.79283C16.4451 7.82343 16.6221 7.85294 16.7992 7.88682C17.4987 8.02016 18.1446 8.277 18.7282 8.69451C19.0747 8.94261 19.3884 9.22131 19.6605 9.54372C20.3349 10.3427 20.7502 11.2596 20.8715 12.3012C20.9502 12.969 20.9065 13.6291 20.7163 14.2795C20.3622 15.4882 19.6824 16.4577 18.6299 17.1572C17.9894 17.5823 17.2888 17.8588 16.526 17.9659C16.3642 17.9889 16.2003 17.9987 16.0374 17.9987C10.7913 17.9998 5.54626 18.0009 0.300128 17.9987C-0.0266623 17.9987 -0.0211985 18.0173 0.0225192 17.696C0.0684228 17.3561 0.12307 17.0162 0.195204 16.6806C0.229086 16.5255 0.343845 16.3845 0.365703 16.2293C0.4127 15.909 0.611615 15.6686 0.754791 15.3997C0.988681 14.9614 1.30782 14.5844 1.65756 14.2379C2.12206 13.7778 2.67072 13.4444 3.28714 13.2259C3.51338 13.1461 3.74509 13.0816 3.97679 13.0215C4.14401 12.9788 4.1768 13.0116 4.15057 13.1789C4.0369 13.9133 3.91886 14.6456 3.80848 15.38C3.77678 15.5899 3.75601 15.803 3.74618 16.0161C3.73416 16.2927 3.88717 16.4325 4.16696 16.4282C4.7801 16.4183 5.39324 16.4052 6.00638 16.3987C7.00206 16.3888 7.99663 16.3834 8.9923 16.3768C9.93333 16.3713 10.8733 16.3637 11.8143 16.3615C12.9826 16.3582 14.1499 16.3593 15.3183 16.3571C15.7959 16.356 16.2724 16.3517 16.75 16.3451C17.0451 16.3407 17.1861 16.1648 17.1413 15.8719C17.0069 14.9899 16.8735 14.1079 16.7391 13.2259C16.7063 13.0109 16.5813 12.9038 16.3642 12.9045C13.6417 12.9045 10.9181 12.9045 8.19555 12.9045C7.21846 12.9045 6.24246 12.9023 5.26537 12.9045C4.55823 12.9067 3.86749 12.793 3.21391 12.5373C2.38 12.2105 1.67724 11.687 1.11546 10.9799C0.799602 10.582 0.532924 10.1536 0.364611 9.67597C0.116513 8.97102 -0.0583579 8.24859 0.0181482 7.49118C0.0465647 7.21248 0.0859097 6.93487 0.138371 6.65945C0.161323 6.53922 0.233458 6.42884 0.277175 6.31189C0.306685 6.2332 0.324172 6.15014 0.346031 6.06926C0.381005 5.9392 0.391935 5.79602 0.455326 5.68126C0.637847 5.3501 0.788673 4.99817 1.05644 4.71729C1.24334 4.52165 1.39963 4.2965 1.58762 4.10196C1.93517 3.74129 2.32426 3.43089 2.77892 3.21121C3.39316 2.91393 4.03253 2.69534 4.71999 2.68223C5.52767 2.66692 6.33645 2.67676 7.14414 2.67567C7.23595 2.67567 7.28731 2.70408 7.28404 2.8101C7.2742 3.2276 7.26546 3.64511 7.26764 4.06261C7.26764 4.20251 7.21846 4.24732 7.08512 4.24623C6.69931 4.24404 6.31241 4.25169 5.9266 4.2506C5.64899 4.2506 5.55609 4.30962 5.50909 4.58504C5.39652 5.24081 5.29488 5.89876 5.18668 6.55452C5.12656 6.92066 5.06427 7.2868 4.99978 7.65184C4.98448 7.74037 5.00525 7.78081 5.10034 7.77971C5.3233 7.77753 5.54626 7.77971 5.76812 7.77971C9.03165 7.77971 12.2963 7.77971 15.5598 7.77971C15.6276 7.77971 15.6964 7.78299 15.7642 7.78955C15.8527 7.7972 15.8778 7.75458 15.8647 7.6737C15.7063 6.71737 15.5478 5.76214 15.3904 4.80582C15.3762 4.71619 15.3685 4.62548 15.3576 4.53586C15.3358 4.35006 15.2702 4.27464 15.0822 4.26262C14.8833 4.24951 14.6822 4.25497 14.4822 4.25279C14.2461 4.24951 14.01 4.24404 13.7728 4.24514C13.6581 4.24514 13.6067 4.20032 13.6078 4.08338C13.6111 3.67899 13.6078 3.27569 13.61 2.87131C13.6111 2.68988 13.6242 2.67676 13.8056 2.67676C15.1598 2.67348 16.515 2.67348 17.8692 2.67239C18.6233 2.67239 19.3775 2.67239 20.1316 2.6713C20.336 2.6713 20.5403 2.66583 20.7447 2.65818C20.8584 2.65381 20.9065 2.68878 20.9021 2.81338C20.8671 3.85277 20.5524 4.79816 19.9491 5.6441C19.5163 6.25069 18.9774 6.75016 18.3282 7.11739C17.7413 7.44855 17.1107 7.65621 16.4331 7.70867C16.374 7.71304 16.3161 7.72944 16.2582 7.74037C16.2593 7.75785 16.2604 7.77534 16.2615 7.79283H16.268Z" fill="#0E84E5"/>
<path d="M13.375 4.00141C13.375 4.42766 13.3728 4.855 13.3761 5.28125C13.3761 5.37524 13.398 5.46923 13.4089 5.56432C13.4242 5.69984 13.375 5.80477 13.2537 5.87034C13.1455 5.92827 12.9914 5.9075 12.9007 5.8157C12.8078 5.7217 12.7804 5.61131 12.8187 5.47907C12.8493 5.37196 12.8755 5.25939 12.8755 5.15009C12.8788 4.44187 12.8701 3.73364 12.8755 3.02541C12.881 2.2833 12.6001 1.66142 12.0821 1.14883C11.8121 0.882149 11.4733 0.716021 11.1017 0.612191C10.423 0.422019 9.78469 0.519291 9.1945 0.882148C8.44583 1.34228 8.05456 2.02209 8.04254 2.90409C8.03161 3.68446 8.03489 4.46591 8.03489 5.24627C8.03489 5.32059 8.06003 5.3971 8.08188 5.47033C8.12779 5.62115 8.09063 5.74903 7.96494 5.84302C7.85674 5.9239 7.72449 5.9239 7.61083 5.84411C7.48842 5.75777 7.45781 5.64192 7.49825 5.48563C7.52558 5.3818 7.54743 5.2736 7.54853 5.16649C7.5529 4.39924 7.54525 3.63199 7.55399 2.86475C7.56164 2.26909 7.73324 1.72153 8.08626 1.23626C8.55841 0.588147 9.18466 0.156434 9.97923 0.0383957C11.0525 -0.120081 11.964 0.211081 12.6788 1.04937C13.1389 1.58928 13.351 2.21226 13.3532 2.91393C13.3542 3.27679 13.3532 3.63964 13.3532 4.00359C13.3597 4.00359 13.3663 4.00359 13.3728 4.00359L13.375 4.00141Z" fill="#0E84E5"/>
<path d="M8.31359 3.51505C8.31359 3.2746 8.31469 3.03415 8.31359 2.7948C8.31359 2.70846 8.34966 2.6713 8.436 2.67239C8.71689 2.67567 8.99887 2.67676 9.27975 2.67676C9.81967 2.67676 10.3596 2.67348 10.9006 2.67458C11.046 2.67458 11.1913 2.68004 11.3367 2.69097C11.5837 2.71064 11.8307 2.74234 12.0788 2.75655C12.2045 2.7631 12.3313 2.74234 12.458 2.73469C12.5389 2.73032 12.5772 2.76748 12.5957 2.84945C12.6985 3.28444 12.6668 3.7238 12.6384 4.16316C12.6318 4.25497 12.5673 4.25169 12.5007 4.25169C11.5738 4.25279 10.647 4.25607 9.7213 4.25607C9.30271 4.25607 8.8852 4.24732 8.4666 4.25279C8.33108 4.25388 8.29173 4.20032 8.29611 4.07573C8.30266 3.88993 8.2972 3.70304 8.2972 3.51723C8.30266 3.51723 8.30813 3.51723 8.31469 3.51723L8.31359 3.51505Z" fill="#0E84E5"/>
</svg>
