<svg width="88" height="18" viewBox="0 0 88 18" fill="none" xmlns="http://www.w3.org/2000/svg">
<path d="M16.268 7.79283C16.4451 7.82343 16.6221 7.85294 16.7992 7.88682C17.4987 8.02016 18.1446 8.277 18.7282 8.69451C19.0747 8.94261 19.3884 9.22131 19.6605 9.54372C20.3349 10.3427 20.7502 11.2596 20.8715 12.3012C20.9502 12.969 20.9065 13.6291 20.7163 14.2795C20.3622 15.4882 19.6824 16.4577 18.6299 17.1572C17.9894 17.5823 17.2888 17.8588 16.526 17.9659C16.3642 17.9889 16.2003 17.9987 16.0374 17.9987C10.7913 17.9998 5.54626 18.0009 0.300128 17.9987C-0.0266623 17.9987 -0.0211985 18.0173 0.0225192 17.696C0.0684228 17.3561 0.12307 17.0162 0.195204 16.6806C0.229086 16.5255 0.343845 16.3845 0.365703 16.2293C0.4127 15.909 0.611615 15.6686 0.754791 15.3997C0.988681 14.9614 1.30782 14.5844 1.65756 14.2379C2.12206 13.7778 2.67072 13.4444 3.28714 13.2259C3.51338 13.1461 3.74509 13.0816 3.97679 13.0215C4.14401 12.9788 4.1768 13.0116 4.15057 13.1789C4.0369 13.9133 3.91886 14.6456 3.80848 15.38C3.77678 15.5899 3.75601 15.803 3.74618 16.0161C3.73416 16.2927 3.88717 16.4325 4.16696 16.4282C4.7801 16.4183 5.39324 16.4052 6.00638 16.3987C7.00206 16.3888 7.99663 16.3834 8.9923 16.3768C9.93333 16.3713 10.8733 16.3637 11.8143 16.3615C12.9826 16.3582 14.1499 16.3593 15.3183 16.3571C15.7959 16.356 16.2724 16.3517 16.75 16.3451C17.0451 16.3407 17.1861 16.1648 17.1413 15.8719C17.0069 14.9899 16.8735 14.1079 16.7391 13.2259C16.7063 13.0109 16.5813 12.9038 16.3642 12.9045C13.6417 12.9045 10.9181 12.9045 8.19555 12.9045C7.21846 12.9045 6.24246 12.9023 5.26537 12.9045C4.55823 12.9067 3.86749 12.793 3.21391 12.5373C2.38 12.2105 1.67724 11.687 1.11546 10.9799C0.799602 10.582 0.532924 10.1536 0.364611 9.67597C0.116513 8.97102 -0.0583579 8.24859 0.0181482 7.49118C0.0465647 7.21248 0.0859097 6.93487 0.138371 6.65945C0.161323 6.53922 0.233458 6.42884 0.277175 6.31189C0.306685 6.2332 0.324172 6.15014 0.346031 6.06926C0.381005 5.9392 0.391935 5.79602 0.455326 5.68126C0.637847 5.3501 0.788673 4.99817 1.05644 4.71729C1.24334 4.52165 1.39963 4.2965 1.58762 4.10196C1.93517 3.74129 2.32426 3.43089 2.77892 3.21121C3.39316 2.91393 4.03253 2.69534 4.71999 2.68223C5.52767 2.66692 6.33645 2.67676 7.14414 2.67567C7.23595 2.67567 7.28731 2.70408 7.28404 2.8101C7.2742 3.2276 7.26546 3.64511 7.26764 4.06261C7.26764 4.20251 7.21846 4.24732 7.08512 4.24623C6.69931 4.24404 6.31241 4.25169 5.9266 4.2506C5.64899 4.2506 5.55609 4.30962 5.50909 4.58504C5.39652 5.24081 5.29488 5.89876 5.18668 6.55452C5.12656 6.92066 5.06427 7.2868 4.99978 7.65184C4.98448 7.74037 5.00525 7.78081 5.10034 7.77971C5.3233 7.77753 5.54626 7.77971 5.76812 7.77971C9.03165 7.77971 12.2963 7.77971 15.5598 7.77971C15.6276 7.77971 15.6964 7.78299 15.7642 7.78955C15.8527 7.7972 15.8778 7.75458 15.8647 7.6737C15.7063 6.71737 15.5478 5.76214 15.3904 4.80582C15.3762 4.71619 15.3685 4.62548 15.3576 4.53586C15.3358 4.35006 15.2702 4.27464 15.0822 4.26262C14.8833 4.24951 14.6822 4.25497 14.4822 4.25279C14.2461 4.24951 14.01 4.24404 13.7728 4.24514C13.6581 4.24514 13.6067 4.20032 13.6078 4.08338C13.6111 3.67899 13.6078 3.27569 13.61 2.87131C13.6111 2.68988 13.6242 2.67676 13.8056 2.67676C15.1598 2.67348 16.515 2.67348 17.8692 2.67239C18.6233 2.67239 19.3775 2.67239 20.1316 2.6713C20.336 2.6713 20.5403 2.66583 20.7447 2.65818C20.8584 2.65381 20.9065 2.68878 20.9021 2.81338C20.8671 3.85277 20.5524 4.79816 19.9491 5.6441C19.5163 6.25069 18.9774 6.75016 18.3282 7.11739C17.7413 7.44855 17.1107 7.65621 16.4331 7.70867C16.374 7.71304 16.3161 7.72944 16.2582 7.74037C16.2593 7.75785 16.2604 7.77534 16.2615 7.79283H16.268Z" fill="#0E84E5"/>
<path d="M13.375 4.00141C13.375 4.42766 13.3728 4.855 13.3761 5.28125C13.3761 5.37524 13.398 5.46923 13.4089 5.56432C13.4242 5.69984 13.375 5.80477 13.2537 5.87034C13.1455 5.92827 12.9914 5.9075 12.9007 5.8157C12.8078 5.7217 12.7804 5.61131 12.8187 5.47907C12.8493 5.37196 12.8755 5.25939 12.8755 5.15009C12.8788 4.44187 12.8701 3.73364 12.8755 3.02541C12.881 2.2833 12.6001 1.66142 12.0821 1.14883C11.8121 0.882149 11.4733 0.716021 11.1017 0.612191C10.423 0.422019 9.78469 0.519291 9.1945 0.882148C8.44583 1.34228 8.05456 2.02209 8.04254 2.90409C8.03161 3.68446 8.03489 4.46591 8.03489 5.24627C8.03489 5.32059 8.06003 5.3971 8.08188 5.47033C8.12779 5.62115 8.09063 5.74903 7.96494 5.84302C7.85674 5.9239 7.72449 5.9239 7.61083 5.84411C7.48842 5.75777 7.45781 5.64192 7.49825 5.48563C7.52558 5.3818 7.54743 5.2736 7.54853 5.16649C7.5529 4.39924 7.54525 3.63199 7.55399 2.86475C7.56164 2.26909 7.73324 1.72153 8.08626 1.23626C8.55841 0.588147 9.18466 0.156434 9.97923 0.0383957C11.0525 -0.120081 11.964 0.211081 12.6788 1.04937C13.1389 1.58928 13.351 2.21226 13.3532 2.91393C13.3542 3.27679 13.3532 3.63964 13.3532 4.00359C13.3597 4.00359 13.3663 4.00359 13.3728 4.00359L13.375 4.00141Z" fill="#0E84E5"/>
<path d="M8.31359 3.51505C8.31359 3.2746 8.31469 3.03415 8.31359 2.7948C8.31359 2.70846 8.34966 2.6713 8.436 2.67239C8.71689 2.67567 8.99887 2.67676 9.27975 2.67676C9.81967 2.67676 10.3596 2.67348 10.9006 2.67458C11.046 2.67458 11.1913 2.68004 11.3367 2.69097C11.5837 2.71064 11.8307 2.74234 12.0788 2.75655C12.2045 2.7631 12.3313 2.74234 12.458 2.73469C12.5389 2.73032 12.5772 2.76748 12.5957 2.84945C12.6985 3.28444 12.6668 3.7238 12.6384 4.16316C12.6318 4.25497 12.5673 4.25169 12.5007 4.25169C11.5738 4.25279 10.647 4.25607 9.7213 4.25607C9.30271 4.25607 8.8852 4.24732 8.4666 4.25279C8.33108 4.25388 8.29173 4.20032 8.29611 4.07573C8.30266 3.88993 8.2972 3.70304 8.2972 3.51723C8.30266 3.51723 8.30813 3.51723 8.31469 3.51723L8.31359 3.51505Z" fill="#0E84E5"/>
<path d="M31.0532 14.331C30.3512 14.331 29.6762 14.2185 29.0282 13.9935C28.3892 13.7595 27.8942 13.4625 27.5432 13.1025L27.9347 12.333C28.2677 12.657 28.7132 12.9315 29.2712 13.1565C29.8382 13.3725 30.4322 13.4805 31.0532 13.4805C31.6472 13.4805 32.1287 13.4085 32.4977 13.2645C32.8757 13.1115 33.1502 12.909 33.3212 12.657C33.5012 12.405 33.5912 12.126 33.5912 11.82C33.5912 11.451 33.4832 11.154 33.2672 10.929C33.0602 10.704 32.7857 10.5285 32.4437 10.4025C32.1017 10.2675 31.7237 10.1505 31.3097 10.0515C30.8957 9.9525 30.4817 9.849 30.0677 9.741C29.6537 9.624 29.2712 9.471 28.9202 9.282C28.5782 9.093 28.2992 8.8455 28.0832 8.5395C27.8762 8.2245 27.7727 7.815 27.7727 7.311C27.7727 6.843 27.8942 6.4155 28.1372 6.0285C28.3892 5.6325 28.7717 5.3175 29.2847 5.0835C29.7977 4.8405 30.4547 4.719 31.2557 4.719C31.7867 4.719 32.3132 4.7955 32.8352 4.9485C33.3572 5.0925 33.8072 5.295 34.1852 5.556L33.8477 6.3525C33.4427 6.0825 33.0107 5.8845 32.5517 5.7585C32.1017 5.6325 31.6652 5.5695 31.2422 5.5695C30.6752 5.5695 30.2072 5.646 29.8382 5.799C29.4692 5.952 29.1947 6.159 29.0147 6.42C28.8437 6.672 28.7582 6.96 28.7582 7.284C28.7582 7.653 28.8617 7.95 29.0687 8.175C29.2847 8.4 29.5637 8.5755 29.9057 8.7015C30.2567 8.8275 30.6392 8.94 31.0532 9.039C31.4672 9.138 31.8767 9.246 32.2817 9.363C32.6957 9.48 33.0737 9.633 33.4157 9.822C33.7667 10.002 34.0457 10.245 34.2527 10.551C34.4687 10.857 34.5767 11.2575 34.5767 11.7525C34.5767 12.2115 34.4507 12.639 34.1987 13.035C33.9467 13.422 33.5597 13.737 33.0377 13.98C32.5247 14.214 31.8632 14.331 31.0532 14.331Z" fill="#0E84E5"/>
<path d="M36.5508 14.25V7.1625H37.5093V14.25H36.5508ZM37.0368 5.5965C36.8388 5.5965 36.6723 5.529 36.5373 5.394C36.4024 5.259 36.3348 5.097 36.3348 4.908C36.3348 4.719 36.4024 4.5615 36.5373 4.4355C36.6723 4.3005 36.8388 4.233 37.0368 4.233C37.2349 4.233 37.4014 4.296 37.5364 4.422C37.6713 4.548 37.7388 4.7055 37.7388 4.8945C37.7388 5.0925 37.6713 5.259 37.5364 5.394C37.4104 5.529 37.2439 5.5965 37.0368 5.5965Z" fill="#0E84E5"/>
<path d="M40.1763 14.25V4.233H41.1348V14.25H40.1763Z" fill="#0E84E5"/>
<path d="M45.6243 14.25L42.4788 7.1625H43.4778L46.3668 13.737H45.8943L48.8238 7.1625H49.7688L46.6098 14.25H45.6243Z" fill="#0E84E5"/>
<path d="M53.9315 14.3175C53.1935 14.3175 52.5455 14.1645 51.9875 13.8585C51.4295 13.5435 50.993 13.116 50.678 12.576C50.363 12.027 50.2055 11.4015 50.2055 10.6995C50.2055 9.9975 50.354 9.3765 50.651 8.8365C50.957 8.2965 51.371 7.8735 51.893 7.5675C52.424 7.2525 53.018 7.095 53.675 7.095C54.341 7.095 54.9305 7.248 55.4435 7.554C55.9655 7.851 56.375 8.274 56.672 8.823C56.969 9.363 57.1175 9.9885 57.1175 10.6995C57.1175 10.7445 57.113 10.794 57.104 10.848C57.104 10.893 57.104 10.9425 57.104 10.9965H50.9345V10.281H56.591L56.213 10.5645C56.213 10.0515 56.1005 9.597 55.8755 9.201C55.6595 8.796 55.3625 8.481 54.9845 8.256C54.6065 8.031 54.17 7.9185 53.675 7.9185C53.189 7.9185 52.7525 8.031 52.3655 8.256C51.9785 8.481 51.677 8.796 51.461 9.201C51.245 9.606 51.137 10.0695 51.137 10.5915V10.74C51.137 11.28 51.254 11.757 51.488 12.171C51.731 12.576 52.064 12.8955 52.487 13.1295C52.919 13.3545 53.4095 13.467 53.9585 13.467C54.3905 13.467 54.791 13.3905 55.16 13.2375C55.538 13.0845 55.862 12.8505 56.132 12.5355L56.672 13.1565C56.357 13.5345 55.961 13.8225 55.484 14.0205C55.016 14.2185 54.4985 14.3175 53.9315 14.3175Z" fill="#0E84E5"/>
<path d="M59.0684 14.25V7.1625H59.9864V9.093L59.8919 8.7555C60.0899 8.2155 60.4229 7.806 60.8909 7.527C61.3589 7.239 61.9394 7.095 62.6324 7.095V8.0265C62.5964 8.0265 62.5604 8.0265 62.5244 8.0265C62.4884 8.0175 62.4524 8.013 62.4164 8.013C61.6694 8.013 61.0844 8.2425 60.6614 8.7015C60.2384 9.1515 60.0269 9.795 60.0269 10.632V14.25H59.0684Z" fill="#0E84E5"/>
<path d="M68.0399 14.3175C67.4189 14.3175 66.8609 14.178 66.3659 13.899C65.8709 13.611 65.4794 13.197 65.1914 12.657C64.9034 12.117 64.7594 11.4645 64.7594 10.6995C64.7594 9.9255 64.9034 9.273 65.1914 8.742C65.4884 8.202 65.8844 7.7925 66.3794 7.5135C66.8744 7.2345 67.4279 7.095 68.0399 7.095C68.7149 7.095 69.3179 7.248 69.8489 7.554C70.3889 7.851 70.8119 8.2695 71.1179 8.8095C71.4239 9.3495 71.5769 9.9795 71.5769 10.6995C71.5769 11.4105 71.4239 12.0405 71.1179 12.5895C70.8119 13.1295 70.3889 13.5525 69.8489 13.8585C69.3179 14.1645 68.7149 14.3175 68.0399 14.3175ZM64.3814 14.25V4.233H65.3399V9.255L65.2049 10.686L65.2994 12.117V14.25H64.3814ZM67.9724 13.467C68.4764 13.467 68.9264 13.3545 69.3224 13.1295C69.7184 12.8955 70.0334 12.5715 70.2674 12.1575C70.5014 11.7345 70.6184 11.2485 70.6184 10.6995C70.6184 10.1415 70.5014 9.6555 70.2674 9.2415C70.0334 8.8275 69.7184 8.508 69.3224 8.283C68.9264 8.049 68.4764 7.932 67.9724 7.932C67.4684 7.932 67.0139 8.049 66.6089 8.283C66.2129 8.508 65.8979 8.8275 65.6639 9.2415C65.4389 9.6555 65.3264 10.1415 65.3264 10.6995C65.3264 11.2485 65.4389 11.7345 65.6639 12.1575C65.8979 12.5715 66.2129 12.8955 66.6089 13.1295C67.0139 13.3545 67.4684 13.467 67.9724 13.467Z" fill="#0E84E5"/>
<path d="M76.5413 14.3175C75.8033 14.3175 75.1553 14.1645 74.5973 13.8585C74.0393 13.5435 73.6028 13.116 73.2878 12.576C72.9728 12.027 72.8153 11.4015 72.8153 10.6995C72.8153 9.9975 72.9638 9.3765 73.2608 8.8365C73.5668 8.2965 73.9808 7.8735 74.5028 7.5675C75.0338 7.2525 75.6278 7.095 76.2848 7.095C76.9508 7.095 77.5403 7.248 78.0533 7.554C78.5753 7.851 78.9848 8.274 79.2818 8.823C79.5788 9.363 79.7273 9.9885 79.7273 10.6995C79.7273 10.7445 79.7228 10.794 79.7138 10.848C79.7138 10.893 79.7138 10.9425 79.7138 10.9965H73.5443V10.281H79.2008L78.8228 10.5645C78.8228 10.0515 78.7103 9.597 78.4853 9.201C78.2693 8.796 77.9723 8.481 77.5943 8.256C77.2163 8.031 76.7798 7.9185 76.2848 7.9185C75.7988 7.9185 75.3623 8.031 74.9753 8.256C74.5883 8.481 74.2868 8.796 74.0708 9.201C73.8548 9.606 73.7468 10.0695 73.7468 10.5915V10.74C73.7468 11.28 73.8638 11.757 74.0978 12.171C74.3408 12.576 74.6738 12.8955 75.0968 13.1295C75.5288 13.3545 76.0193 13.467 76.5683 13.467C77.0003 13.467 77.4008 13.3905 77.7698 13.2375C78.1478 13.0845 78.4718 12.8505 78.7418 12.5355L79.2818 13.1565C78.9668 13.5345 78.5708 13.8225 78.0938 14.0205C77.6258 14.2185 77.1083 14.3175 76.5413 14.3175Z" fill="#0E84E5"/>
<path d="M84.6888 14.3175C83.9508 14.3175 83.3028 14.1645 82.7448 13.8585C82.1868 13.5435 81.7503 13.116 81.4353 12.576C81.1203 12.027 80.9628 11.4015 80.9628 10.6995C80.9628 9.9975 81.1113 9.3765 81.4083 8.8365C81.7143 8.2965 82.1283 7.8735 82.6503 7.5675C83.1813 7.2525 83.7753 7.095 84.4323 7.095C85.0983 7.095 85.6878 7.248 86.2008 7.554C86.7228 7.851 87.1323 8.274 87.4293 8.823C87.7263 9.363 87.8748 9.9885 87.8748 10.6995C87.8748 10.7445 87.8703 10.794 87.8613 10.848C87.8613 10.893 87.8613 10.9425 87.8613 10.9965H81.6918V10.281H87.3483L86.9703 10.5645C86.9703 10.0515 86.8578 9.597 86.6328 9.201C86.4168 8.796 86.1198 8.481 85.7418 8.256C85.3638 8.031 84.9273 7.9185 84.4323 7.9185C83.9463 7.9185 83.5098 8.031 83.1228 8.256C82.7358 8.481 82.4343 8.796 82.2183 9.201C82.0023 9.606 81.8943 10.0695 81.8943 10.5915V10.74C81.8943 11.28 82.0113 11.757 82.2453 12.171C82.4883 12.576 82.8213 12.8955 83.2443 13.1295C83.6763 13.3545 84.1668 13.467 84.7158 13.467C85.1478 13.467 85.5483 13.3905 85.9173 13.2375C86.2953 13.0845 86.6193 12.8505 86.8893 12.5355L87.4293 13.1565C87.1143 13.5345 86.7183 13.8225 86.2413 14.0205C85.7733 14.2185 85.2558 14.3175 84.6888 14.3175Z" fill="#0E84E5"/>
</svg>
