<svg xmlns="http://www.w3.org/2000/svg" width="31" height="24" viewBox="0 0 31 24" fill="none">
  <path fill-rule="evenodd" clip-rule="evenodd" d="M21.4812 10.6817C22.2477 10.6817 22.9288 11.0519 23.3536 11.6215C23.7784 11.0495 24.4595 10.6817 25.2261 10.6817C26.5147 10.6817 27.5589 11.7259 27.5589 13.0145C27.5589 14.3032 26.5147 15.3474 25.2261 15.3474C24.4595 15.3474 23.7784 14.9772 23.3536 14.4076C22.9288 14.9795 22.2477 15.3474 21.4812 15.3474C20.1925 15.3474 19.1483 14.3032 19.1483 13.0145C19.1483 11.7259 20.1925 10.6817 21.4812 10.6817ZM10.2181 8.76416C12.8024 10.4017 15.1377 11.1777 17.1406 10.995C17.2688 13.5912 16.9982 15.7983 16.3765 17.6351H28.4797C28.6648 17.6351 28.8333 17.5592 28.9567 17.4358C29.0801 17.3124 29.1561 17.1439 29.1561 16.9588V8.06645H1.84784V16.9588C1.84784 17.1439 1.92378 17.3124 2.04718 17.4358C2.17059 17.5592 2.33909 17.6351 2.52419 17.6351H4.15932C3.54704 15.7983 3.25276 13.5651 3.32158 10.8858C5.67341 11.0116 7.98251 10.5013 10.2181 8.76416ZM16.0205 18.563C14.8671 21.2234 12.8831 23.0056 10.2442 24C7.65264 23.0531 5.67578 21.3112 4.50817 18.563H2.52419C2.08278 18.563 1.68171 18.3827 1.39219 18.0931C1.10028 17.8036 0.919922 17.4026 0.919922 16.9611V1.60427C0.919922 1.16286 1.10028 0.761792 1.38981 0.46989C1.68171 0.180362 2.08278 0 2.52419 0H28.4797C28.9211 0 29.3222 0.180362 29.6117 0.46989C29.9012 0.759419 30.0816 1.16286 30.0816 1.6019V16.9564C30.0816 17.3978 29.9012 17.7989 29.6117 18.0884C29.3222 18.3779 28.9211 18.5607 28.4797 18.5607H16.0205V18.563ZM10.2228 10.1833C12.3705 11.5455 14.3118 12.1887 15.9754 12.0368C16.0893 14.3245 15.8283 16.2278 15.2421 17.787L15.2255 17.8297C15.2065 17.8772 15.1899 17.9247 15.1709 17.9697L15.1495 18.022C15.1329 18.0647 15.1139 18.1074 15.0973 18.1501L15.076 18.1999C15.057 18.2427 15.038 18.2854 15.019 18.3281L14.9929 18.3874C14.9763 18.423 14.9597 18.4586 14.9431 18.4942L14.9075 18.5654C13.9321 20.5779 12.3349 21.9258 10.2418 22.7137C8.18186 21.9614 6.58946 20.6467 5.60459 18.5654L5.59747 18.5512L5.59509 18.5346L5.58797 18.5203C5.57136 18.4823 5.55475 18.4468 5.53814 18.4088L5.53102 18.3945L5.5239 18.3803L5.51678 18.3661L5.50966 18.3518L5.50254 18.3376C5.48593 18.2996 5.46931 18.2616 5.4527 18.2237L5.44558 18.2094L5.43846 18.1952L5.43134 18.181C5.40761 18.124 5.38388 18.0647 5.36015 18.0077L5.3554 17.9935L5.35065 17.9792C5.33404 17.9341 5.31506 17.8914 5.29844 17.8463L5.2937 17.8321L5.28895 17.8179L5.28421 17.8036L5.27946 17.7894C5.26285 17.7443 5.24623 17.6992 5.22962 17.6541L5.22488 17.6399C4.68854 16.1115 4.42749 14.2344 4.48682 11.949C6.44707 12.0486 8.3646 11.6262 10.2228 10.1833ZM1.84784 3.45535H29.1537V1.60427C29.1537 1.41916 29.0777 1.25067 28.9543 1.12726C28.8309 1.00386 28.6624 0.927915 28.4773 0.927915H2.52419C2.33909 0.927915 2.17059 1.00386 2.04718 1.12726C1.92378 1.25067 1.84784 1.41916 1.84784 1.60427V3.45535Z" fill="#ABABAB"/>
  <path d="M6.76332 15.9812L7.99025 15.9646L8.08281 15.9883C8.32962 16.1307 8.56456 16.2945 8.7829 16.4796C8.93953 16.6125 9.09141 16.7572 9.2338 16.9162C9.67521 16.2067 10.1427 15.5564 10.6387 14.9584C11.1822 14.3034 11.7589 13.7077 12.364 13.1642L12.4827 13.1191H13.8235L13.553 13.4182C12.7224 14.3413 11.9701 15.293 11.289 16.2778C10.6079 17.2627 10.0003 18.2784 9.45925 19.3226L9.29076 19.6478L9.1365 19.3179C8.85172 18.7056 8.50998 18.1432 8.10179 17.6401C7.6936 17.1369 7.21897 16.6908 6.66602 16.3111L6.76332 15.9812Z" fill="#ABABAB"/>
</svg>