<svg xmlns="http://www.w3.org/2000/svg" width="24" height="24" viewBox="0 0 24 24" fill="none">
  <path d="M10.7702 18.2998C9.28095 18.2998 7.8251 17.8582 6.5868 17.0308C5.3485 16.2034 4.38336 15.0273 3.81343 13.6514C3.2435 12.2755 3.09438 10.7614 3.38493 9.30072C3.67548 7.84005 4.39264 6.49833 5.44573 5.44524C6.49882 4.39215 7.84054 3.67499 9.30121 3.38444C10.7618 3.09389 12.2759 3.24301 13.6518 3.81294C15.0277 4.38287 16.2038 5.34801 17.0312 6.58631C17.8586 7.82461 18.3002 9.28046 18.3002 10.7698C18.3002 11.7586 18.1054 12.7378 17.727 13.6514C17.3486 14.565 16.7939 15.3951 16.0947 16.0943C15.3955 16.7935 14.5654 17.3482 13.6518 17.7266C12.7382 18.105 11.759 18.2998 10.7702 18.2998ZM10.7702 4.74975C9.58356 4.74975 8.42352 5.10165 7.43682 5.76094C6.45013 6.42022 5.68109 7.3573 5.22697 8.45365C4.77284 9.55001 4.65402 10.7564 4.88553 11.9203C5.11704 13.0842 5.68849 14.1533 6.5276 14.9924C7.36672 15.8315 8.43581 16.403 9.5997 16.6345C10.7635 16.866 11.9699 16.7472 13.0663 16.2931C14.1626 15.8389 15.0997 15.0699 15.759 14.0832C16.4183 13.0965 16.7702 11.9365 16.7702 10.7498C16.7702 9.15845 16.1381 7.63233 15.0128 6.50711C13.8876 5.38189 12.3615 4.74975 10.7702 4.74975Z" fill="#2C3333"/>
  <path d="M20 20.75C19.9015 20.7504 19.8038 20.7312 19.7128 20.6934C19.6218 20.6557 19.5392 20.6001 19.47 20.53L15.34 16.4C15.2075 16.2578 15.1354 16.0697 15.1388 15.8754C15.1422 15.6811 15.221 15.4958 15.3584 15.3583C15.4958 15.2209 15.6812 15.1422 15.8755 15.1388C16.0698 15.1354 16.2578 15.2075 16.4 15.34L20.53 19.47C20.6704 19.6106 20.7493 19.8012 20.7493 20C20.7493 20.1987 20.6704 20.3893 20.53 20.53C20.4608 20.6001 20.3782 20.6557 20.2872 20.6934C20.1962 20.7312 20.0985 20.7504 20 20.75Z" fill="#2C3333"/>
</svg>