<svg xmlns="http://www.w3.org/2000/svg" width="14" height="15" viewBox="0 0 14 15" fill="none">
  <path d="M7.24123 10.9307L9.99942 12.6782C10.352 12.9015 10.7897 12.5693 10.6851 12.1578L9.8882 9.02295C9.86576 8.93564 9.86842 8.84377 9.89587 8.7579C9.92332 8.67203 9.97445 8.59565 10.0434 8.53755L12.5167 6.47893C12.8417 6.20843 12.674 5.66907 12.2565 5.64197L9.0264 5.43234C8.9394 5.42613 8.85595 5.39532 8.78578 5.34352C8.7156 5.29171 8.66159 5.22104 8.63003 5.13973L7.42535 2.10605C7.39261 2.01975 7.33438 1.94544 7.25841 1.89301C7.18244 1.84058 7.09231 1.8125 7 1.8125C6.90769 1.8125 6.81757 1.84058 6.7416 1.89301C6.66562 1.94544 6.6074 2.01975 6.57465 2.10605L5.36998 5.13973C5.33841 5.22104 5.2844 5.29171 5.21423 5.34352C5.14405 5.39532 5.06061 5.42613 4.97361 5.43234L1.74355 5.64197C1.32601 5.66907 1.15826 6.20843 1.48326 6.47893L3.95662 8.53755C4.02555 8.59565 4.07668 8.67203 4.10413 8.7579C4.13158 8.84377 4.13424 8.93564 4.1118 9.02295L3.37277 11.9301C3.24722 12.424 3.77251 12.8227 4.19558 12.5546L6.75877 10.9307C6.83086 10.8848 6.91455 10.8604 7 10.8604C7.08546 10.8604 7.16914 10.8848 7.24123 10.9307Z" fill="#FFB84C"/>
</svg>